<?xml version="1.0" encoding="utf-8"?>
<svg viewBox="239.666 163.595 172.809 172.809" xmlns="http://www.w3.org/2000/svg">
  <path d="M 341.431 244.239 L 341.431 239.241 C 342.598 239.968 344.194 240.807 346.854 240.807 C 349.833 240.807 351.48 239.754 352.681 238.985 C 353.602 238.395 354.109 238.071 355.404 238.071 C 356.699 238.071 357.206 238.395 358.126 238.985 C 359.328 239.754 360.974 240.807 363.954 240.807 C 366.935 240.807 368.58 239.754 369.783 238.985 C 370.703 238.395 371.21 238.071 372.506 238.071 C 373.801 238.071 374.308 238.395 375.229 238.985 C 376.431 239.754 378.077 240.807 381.057 240.807 C 384.038 240.807 385.684 239.754 386.886 238.985 C 387.806 238.395 388.314 238.071 389.609 238.071 C 390.905 238.071 391.411 238.395 392.333 238.985 C 393.535 239.754 395.181 240.807 398.161 240.807 C 401.142 240.807 402.788 239.754 403.991 238.985 C 404.597 238.597 405.025 238.324 405.615 238.183 C 405.909 240.187 406.13 242.207 406.273 244.239 L 341.431 244.239 Z M 341.431 228.041 C 342.598 228.768 344.194 229.607 346.854 229.607 C 349.833 229.607 351.48 228.553 352.681 227.784 C 353.602 227.195 354.109 226.87 355.404 226.87 C 356.699 226.87 357.206 227.195 358.126 227.784 C 359.328 228.553 360.974 229.607 363.954 229.607 C 366.935 229.607 368.58 228.553 369.783 227.784 C 370.703 227.195 371.21 226.87 372.506 226.87 C 373.801 226.87 374.308 227.195 375.229 227.784 C 376.431 228.553 378.077 229.607 381.057 229.607 C 384.038 229.607 385.684 228.553 386.886 227.784 C 387.806 227.195 388.314 226.87 389.609 226.87 C 390.905 226.87 391.411 227.195 392.333 227.784 C 393.535 228.553 395.181 229.607 398.161 229.607 C 400.74 229.607 402.319 228.819 403.476 228.108 C 403.885 229.565 404.253 231.035 404.579 232.515 C 402.881 232.86 401.764 233.571 400.886 234.133 C 399.964 234.722 399.457 235.047 398.161 235.047 C 396.867 235.047 396.359 234.722 395.438 234.133 C 394.236 233.364 392.589 232.31 389.609 232.31 C 386.628 232.31 384.983 233.364 383.781 234.133 C 382.86 234.722 382.352 235.047 381.057 235.047 C 379.762 235.047 379.255 234.722 378.334 234.133 C 377.132 233.364 375.487 232.31 372.506 232.31 C 369.526 232.31 367.879 233.364 366.678 234.133 C 365.757 234.722 365.249 235.047 363.954 235.047 C 362.66 235.047 362.153 234.722 361.232 234.133 C 360.031 233.364 358.384 232.31 355.404 232.31 C 352.423 232.31 350.778 233.364 349.576 234.133 C 348.656 234.722 348.148 235.047 346.854 235.047 C 345.559 235.047 345.051 234.722 344.131 234.133 C 343.437 233.689 342.593 233.151 341.431 232.775 L 341.431 228.041 Z M 341.431 217.678 L 361.47 217.678 L 369.244 217.678 L 396.474 217.678 L 399.674 217.678 L 399.755 217.678 C 400.441 219.249 401.076 220.841 401.66 222.452 C 401.38 222.616 401.123 222.78 400.886 222.932 C 399.964 223.522 399.457 223.846 398.161 223.846 C 396.867 223.846 396.359 223.522 395.438 222.932 C 394.236 222.163 392.589 221.11 389.609 221.11 C 386.628 221.11 384.983 222.163 383.781 222.932 C 382.86 223.522 382.352 223.846 381.057 223.846 C 379.762 223.846 379.255 223.522 378.334 222.932 C 377.132 222.163 375.487 221.11 372.506 221.11 C 369.526 221.11 367.879 222.163 366.678 222.932 C 365.757 223.522 365.249 223.846 363.954 223.846 C 362.66 223.846 362.153 223.522 361.232 222.932 C 360.031 222.163 358.384 221.11 355.404 221.11 C 352.423 221.11 350.778 222.163 349.576 222.932 C 348.656 223.522 348.148 223.846 346.854 223.846 C 345.559 223.846 345.051 223.522 344.131 222.932 C 343.437 222.488 342.593 221.95 341.431 221.574 L 341.431 217.678 Z M 352.285 202.745 C 349.476 202.745 347.192 200.46 347.192 197.652 C 347.192 196.068 347.849 192.533 349.068 189.103 C 350.45 185.217 351.751 183.679 352.285 183.291 C 352.817 183.679 354.119 185.217 355.5 189.104 C 356.719 192.534 357.376 196.068 357.376 197.652 C 357.376 200.46 355.092 202.745 352.285 202.745 M 341.431 197.652 L 341.431 170.859 C 356.241 173.746 369.935 180.763 380.985 191.116 L 370.552 191.116 C 368.962 191.116 367.672 192.406 367.672 193.996 C 367.672 195.587 368.962 196.877 370.552 196.877 L 386.552 196.877 C 388.114 198.661 389.592 200.504 390.981 202.404 C 390.798 202.41 390.616 202.421 390.433 202.436 C 388.346 200.932 385.75 200.077 383.017 200.077 C 380.451 200.077 377.998 200.814 375.926 202.208 C 375.498 202.496 375.093 202.809 374.711 203.145 C 374.408 203.12 374.102 203.107 373.795 203.107 C 369.149 203.107 365.011 206.041 363.734 210.24 L 363.223 211.917 L 355.164 211.917 L 355.164 208.114 C 359.754 206.849 363.137 202.639 363.137 197.652 C 363.137 195.966 362.578 192.304 361.411 188.556 L 365.113 188.556 C 366.703 188.556 367.993 187.267 367.993 185.676 C 367.993 184.085 366.703 182.796 365.113 182.796 L 359.029 182.796 C 357.338 179.738 355.103 177.462 352.285 177.462 C 344.796 177.462 341.431 193.511 341.431 197.652 C 341.431 202.639 344.814 206.849 349.404 208.114 L 349.404 211.917 L 341.431 211.917 L 341.431 197.652 Z M 396.474 211.917 L 369.244 211.917 C 369.778 210.163 371.611 208.867 373.795 208.867 C 374.986 208.867 376.071 209.255 376.9 209.888 C 377.643 207.553 380.097 205.837 383.017 205.837 C 385.486 205.837 387.62 207.065 388.672 208.854 C 389.466 208.413 390.408 208.155 391.419 208.155 C 393.977 208.155 396.09 209.786 396.474 211.917 M 335.67 244.239 L 316.47 244.239 L 316.47 169.922 C 319.636 169.548 322.838 169.355 326.07 169.355 C 329.302 169.355 332.504 169.548 335.67 169.922 L 335.67 244.239 Z M 310.709 186.316 L 297.269 186.316 C 295.678 186.316 294.389 187.606 294.389 189.196 C 294.389 190.787 295.678 192.076 297.269 192.076 L 310.709 192.076 L 310.709 206.477 L 288.521 206.477 C 288.312 204.554 287.789 202.724 287.009 201.037 L 297.269 201.037 C 298.859 201.037 300.149 199.747 300.149 198.156 C 300.149 196.566 298.859 195.277 297.269 195.277 L 282.743 195.277 C 279.695 192.551 275.695 190.873 271.311 190.803 C 278.194 184.425 286.04 179.345 294.681 175.69 C 299.011 173.859 303.458 172.422 307.999 171.382 C 308.06 171.368 308.121 171.355 308.182 171.342 C 308.701 171.224 309.222 171.113 309.743 171.006 C 309.921 170.969 310.099 170.933 310.277 170.898 C 310.421 170.869 310.565 170.844 310.709 170.816 L 310.709 186.316 Z M 310.709 264.819 C 308.566 264.709 306.43 264.71 304.309 264.806 L 304.309 254.834 L 304.309 248.299 L 304.309 219.598 L 298.549 219.598 L 298.549 248.299 L 298.549 254.834 L 298.549 265.306 C 297.367 265.458 296.192 265.635 295.029 265.842 L 295.029 254.834 L 295.029 248.299 L 295.029 219.598 L 289.268 219.598 L 289.268 248.299 L 289.268 254.834 L 289.268 267.092 C 288.079 267.397 286.905 267.727 285.748 268.081 L 285.748 254.834 L 285.748 248.299 L 285.748 219.598 L 279.988 219.598 L 279.988 248.299 L 279.988 254.834 L 279.988 270.087 C 277.758 270.958 275.619 271.908 273.587 272.917 L 273.587 212.238 L 310.709 212.238 L 310.709 264.819 Z M 310.709 282.385 C 306.416 281.057 301.144 280.34 296.032 279.973 C 300.688 278.129 306.006 276.77 310.709 276.343 L 310.709 282.385 Z M 272.27 280.165 C 282.53 274.239 296.725 269.858 310.51 270.579 C 301.528 271.334 290.705 275.111 284.449 279.631 C 282.589 279.645 280.949 279.687 279.645 279.735 C 277.308 279.819 274.807 279.962 272.27 280.165 M 310.709 301.794 C 300.4 294.827 286.629 291.67 278.737 290.352 C 270.656 289.002 261.094 288.327 255.645 289.156 C 255.552 288.991 255.458 288.826 255.367 288.66 C 260.113 287.245 268.871 285.888 279.854 285.491 C 293.189 285.01 304.743 286.149 310.709 288.484 L 310.709 301.794 Z M 310.709 321.726 C 300.014 311.399 287.203 304.874 277.854 301.101 C 269.953 297.913 263.029 296.068 259.433 295.273 C 259.282 295.052 259.135 294.83 258.986 294.609 C 263.027 294.418 269.911 294.658 278.591 296.17 C 286.68 297.58 301.519 301.118 310.709 309.022 L 310.709 321.726 Z M 266.147 303.806 C 265.833 303.458 265.525 303.105 265.218 302.752 C 276.301 306.086 295.586 313.658 309.501 328.718 C 292.861 325.261 277.679 316.585 266.147 303.806 M 245.427 249.945 C 245.428 248.571 245.463 247.202 245.532 245.839 L 267.827 245.839 L 267.827 276.106 C 264.936 277.887 262.373 279.764 260.231 281.651 C 257.422 282.15 254.856 282.75 252.749 283.456 C 247.969 273.038 245.435 261.632 245.427 249.945 M 246.042 239.954 L 246.061 239.806 C 246.138 239.196 246.221 238.587 246.311 237.98 C 246.319 237.927 246.327 237.873 246.335 237.82 C 246.429 237.202 246.529 236.586 246.637 235.971 C 246.642 235.941 246.647 235.911 246.652 235.882 C 247.011 233.849 247.453 231.834 247.968 229.838 C 247.973 229.838 247.98 229.839 247.986 229.839 L 253.106 229.839 C 254.697 229.839 255.987 228.549 255.987 226.958 C 255.987 225.367 254.697 224.078 253.106 224.078 L 249.687 224.078 C 250.312 222.237 250.999 220.413 251.761 218.611 C 252.504 216.854 253.307 215.13 254.167 213.44 C 256.043 219.696 261.31 224.498 267.827 225.7 L 267.827 230.158 L 260.467 230.158 C 258.876 230.158 257.587 231.448 257.587 233.038 C 257.587 234.629 258.876 235.919 260.467 235.919 L 267.827 235.919 L 267.827 240.079 L 246.028 240.079 C 246.033 240.037 246.037 239.996 246.042 239.954 M 260.418 203.148 C 261.281 201.942 262.18 200.76 263.111 199.601 C 265.21 197.71 267.986 196.556 271.027 196.556 C 276.903 196.556 281.789 200.858 282.709 206.477 L 267.827 206.477 L 267.827 219.793 C 262.848 218.393 259.187 213.817 259.187 208.397 C 259.187 206.513 259.631 204.732 260.418 203.148 M 326.07 163.595 C 322.825 163.595 319.622 163.78 316.47 164.129 L 316.47 164.125 C 316.278 164.146 316.088 164.172 315.897 164.194 C 315.518 164.239 315.138 164.282 314.76 164.332 C 314.285 164.393 313.812 164.461 313.339 164.531 C 313.161 164.557 312.982 164.581 312.804 164.608 C 290.989 167.943 271.866 179.448 258.648 195.899 C 257.455 197.081 256.431 198.431 255.613 199.911 C 245.574 214.012 239.666 231.257 239.666 249.886 C 239.666 249.906 239.666 249.925 239.666 249.945 C 239.666 249.963 239.666 249.981 239.666 249.999 C 239.666 250.526 239.676 251.05 239.685 251.574 C 239.688 251.709 239.687 251.844 239.691 251.978 C 240.743 298.784 279.012 336.404 326.07 336.404 C 359.994 336.404 389.347 316.85 403.487 288.402 L 397.008 288.402 C 393.311 295.226 388.651 301.467 383.094 307.023 C 375.686 314.431 367.061 320.247 357.458 324.308 C 347.52 328.512 336.959 330.643 326.07 330.643 C 322.838 330.643 319.636 330.451 316.47 330.077 L 316.47 249.999 L 335.67 249.999 L 339.511 249.999 L 406.714 249.999 L 412.229 249.999 L 412.475 249.999 C 412.475 202.28 373.79 163.595 326.07 163.595" style="fill: white; fill-opacity: 1; fill-rule: nonzero;" transform="matrix(1, 0, 0, 1, -7.105427357601002e-15, 0)"/>
</svg>