<?xml version="1.0" encoding="UTF-8" standalone="no"?>
<!-- Created with Inkscape (http://www.inkscape.org/) -->

<svg
   version="1.1"
   id="svg2"
   width="300"
   height="300"
   viewBox="-110 -100 190 190"
   xmlns="http://www.w3.org/2000/svg"
   xmlns:svg="http://www.w3.org/2000/svg"
   transform="scale (1, -1)" transform-origin="center">
    <path
       d="M 0,0 V 4.998 C 1.167,4.271 2.763,3.432 5.423,3.432 c 2.979,0 4.626,1.053 5.827,1.822 0.921,0.59 1.428,0.914 2.723,0.914 1.295,0 1.802,-0.324 2.722,-0.914 1.202,-0.769 2.848,-1.822 5.828,-1.822 2.981,0 4.626,1.053 5.829,1.822 0.92,0.59 1.427,0.914 2.723,0.914 1.295,0 1.802,-0.324 2.723,-0.914 1.202,-0.769 2.848,-1.822 5.828,-1.822 2.981,0 4.627,1.053 5.829,1.822 0.92,0.59 1.428,0.914 2.723,0.914 1.296,0 1.802,-0.324 2.724,-0.914 1.202,-0.769 2.848,-1.822 5.828,-1.822 2.981,0 4.627,1.053 5.83,1.822 0.606,0.388 1.034,0.661 1.624,0.802 C 64.478,4.052 64.699,2.032 64.842,0 Z m 0,16.198 c 1.167,-0.727 2.763,-1.566 5.423,-1.566 2.979,0 4.626,1.054 5.827,1.823 0.921,0.589 1.428,0.914 2.723,0.914 1.295,0 1.802,-0.325 2.722,-0.914 1.202,-0.769 2.848,-1.823 5.828,-1.823 2.981,0 4.626,1.054 5.829,1.823 0.92,0.589 1.427,0.914 2.723,0.914 1.295,0 1.802,-0.325 2.723,-0.914 1.202,-0.769 2.848,-1.823 5.828,-1.823 2.981,0 4.627,1.054 5.829,1.823 0.92,0.589 1.428,0.914 2.723,0.914 1.296,0 1.802,-0.325 2.724,-0.914 1.202,-0.769 2.848,-1.823 5.828,-1.823 2.579,0 4.158,0.788 5.315,1.499 0.409,-1.457 0.777,-2.927 1.103,-4.407 C 61.45,11.379 60.333,10.668 59.455,10.106 58.533,9.517 58.026,9.192 56.73,9.192 c -1.294,0 -1.802,0.325 -2.723,0.914 -1.202,0.769 -2.849,1.823 -5.829,1.823 -2.981,0 -4.626,-1.054 -5.828,-1.823 -0.921,-0.589 -1.429,-0.914 -2.724,-0.914 -1.295,0 -1.802,0.325 -2.723,0.914 -1.202,0.769 -2.847,1.823 -5.828,1.823 -2.98,0 -4.627,-1.054 -5.828,-1.823 -0.921,-0.589 -1.429,-0.914 -2.724,-0.914 -1.294,0 -1.801,0.325 -2.722,0.914 -1.201,0.769 -2.848,1.823 -5.828,1.823 -2.981,0 -4.626,-1.054 -5.828,-1.823 C 7.225,9.517 6.717,9.192 5.423,9.192 4.128,9.192 3.62,9.517 2.7,10.106 2.006,10.55 1.162,11.088 0,11.464 Z m 0,10.363 h 20.039 7.774 27.23 3.2 0.081 c 0.686,-1.571 1.321,-3.163 1.905,-4.774 -0.28,-0.164 -0.537,-0.328 -0.774,-0.48 -0.922,-0.59 -1.429,-0.914 -2.725,-0.914 -1.294,0 -1.802,0.324 -2.723,0.914 -1.202,0.769 -2.849,1.822 -5.829,1.822 -2.981,0 -4.626,-1.053 -5.828,-1.822 -0.921,-0.59 -1.429,-0.914 -2.724,-0.914 -1.295,0 -1.802,0.324 -2.723,0.914 -1.202,0.769 -2.847,1.822 -5.828,1.822 -2.98,0 -4.627,-1.053 -5.828,-1.822 -0.921,-0.59 -1.429,-0.914 -2.724,-0.914 -1.294,0 -1.801,0.324 -2.722,0.914 -1.201,0.769 -2.848,1.822 -5.828,1.822 -2.981,0 -4.626,-1.053 -5.828,-1.822 -0.92,-0.59 -1.428,-0.914 -2.722,-0.914 -1.295,0 -1.803,0.324 -2.723,0.914 -0.694,0.444 -1.538,0.982 -2.7,1.358 z m 10.854,14.933 c -2.809,0 -5.093,2.285 -5.093,5.093 0,1.584 0.657,5.119 1.876,8.549 1.382,3.886 2.683,5.424 3.217,5.812 0.532,-0.388 1.834,-1.926 3.215,-5.813 1.219,-3.43 1.876,-6.964 1.876,-8.548 0,-2.808 -2.284,-5.093 -5.091,-5.093 M 0,46.587 V 73.38 C 14.81,70.493 28.504,63.476 39.554,53.123 H 29.121 c -1.59,0 -2.88,-1.29 -2.88,-2.88 0,-1.591 1.29,-2.881 2.88,-2.881 h 16 c 1.562,-1.784 3.04,-3.627 4.429,-5.527 -0.183,-0.006 -0.365,-0.017 -0.548,-0.032 -2.087,1.504 -4.683,2.359 -7.416,2.359 -2.566,0 -5.019,-0.737 -7.091,-2.131 -0.428,-0.288 -0.833,-0.601 -1.215,-0.937 -0.303,0.025 -0.609,0.038 -0.916,0.038 -4.646,0 -8.784,-2.934 -10.061,-7.133 l -0.511,-1.677 h -8.059 v 3.803 c 4.59,1.265 7.973,5.475 7.973,10.462 0,1.686 -0.559,5.348 -1.726,9.096 h 3.702 c 1.59,0 2.88,1.289 2.88,2.88 0,1.591 -1.29,2.88 -2.88,2.88 h -6.084 c -1.691,3.058 -3.926,5.334 -6.744,5.334 C 3.365,66.777 0,50.728 0,46.587 0,41.6 3.383,37.39 7.973,36.125 V 32.322 H 0 Z M 55.043,32.322 h -27.23 c 0.534,1.754 2.367,3.05 4.551,3.05 1.191,0 2.276,-0.388 3.105,-1.021 0.743,2.335 3.197,4.051 6.117,4.051 2.469,0 4.603,-1.228 5.655,-3.017 0.794,0.441 1.736,0.699 2.747,0.699 2.558,0 4.671,-1.631 5.055,-3.762 M -5.761,0 h -19.2 v 74.317 c 3.166,0.374 6.368,0.567 9.6,0.567 3.232,0 6.434,-0.193 9.6,-0.567 z m -24.961,57.923 h -13.44 c -1.591,0 -2.88,-1.29 -2.88,-2.88 0,-1.591 1.289,-2.88 2.88,-2.88 h 13.44 V 37.762 H -52.91 c -0.209,1.923 -0.732,3.753 -1.512,5.44 h 10.26 c 1.59,0 2.88,1.29 2.88,2.881 0,1.59 -1.29,2.879 -2.88,2.879 h -14.526 c -3.048,2.726 -7.048,4.404 -11.432,4.474 6.883,6.378 14.729,11.458 23.37,15.113 4.33,1.831 8.777,3.268 13.318,4.308 0.061,0.014 0.122,0.027 0.183,0.04 0.519,0.118 1.04,0.229 1.561,0.336 0.178,0.037 0.356,0.073 0.534,0.108 0.144,0.029 0.288,0.054 0.432,0.082 z m 0,-78.503 c -2.143,0.11 -4.279,0.109 -6.4,0.013 v 9.972 6.535 28.701 h -5.76 V -4.06 -10.595 -21.067 c -1.182,-0.152 -2.357,-0.329 -3.52,-0.536 v 11.008 6.535 28.701 h -5.761 V -4.06 -10.595 -22.853 c -1.189,-0.305 -2.363,-0.635 -3.52,-0.989 v 13.247 6.535 28.701 h -5.76 V -4.06 -10.595 -25.848 c -2.23,-0.871 -4.369,-1.821 -6.401,-2.83 v 60.679 h 37.122 z m 0,-17.566 c -4.293,1.328 -9.565,2.045 -14.677,2.412 4.656,1.844 9.974,3.203 14.677,3.63 z m -38.439,2.22 c 10.26,5.926 24.455,10.307 38.24,9.586 -8.982,-0.755 -19.805,-4.532 -26.061,-9.052 -1.86,-0.014 -3.5,-0.056 -4.804,-0.104 -2.337,-0.084 -4.838,-0.227 -7.375,-0.43 m 38.439,-21.629 c -10.309,6.967 -24.08,10.124 -31.972,11.442 -8.081,1.35 -17.643,2.025 -23.092,1.196 -0.093,0.165 -0.187,0.33 -0.278,0.496 4.746,1.415 13.504,2.772 24.487,3.169 13.335,0.481 24.889,-0.658 30.855,-2.993 z m 0,-19.932 c -10.695,10.327 -23.506,16.852 -32.855,20.625 -7.901,3.188 -14.825,5.033 -18.421,5.828 -0.151,0.221 -0.298,0.443 -0.447,0.664 4.041,0.191 10.925,-0.049 19.605,-1.561 8.089,-1.41 22.928,-4.948 32.118,-12.852 z m -44.562,17.92 c -0.314,0.348 -0.622,0.701 -0.929,1.054 11.083,-3.334 30.368,-10.906 44.283,-25.966 -16.64,3.457 -31.822,12.133 -43.354,24.912 m -20.72,53.861 c 0.001,1.374 0.036,2.743 0.105,4.106 h 22.295 v -30.267 c -2.891,-1.781 -5.454,-3.658 -7.596,-5.545 -2.809,-0.499 -5.375,-1.099 -7.482,-1.805 -4.78,10.418 -7.314,21.824 -7.322,33.511 m 0.615,9.991 0.019,0.148 c 0.077,0.61 0.16,1.219 0.25,1.826 0.008,0.053 0.016,0.107 0.024,0.16 0.094,0.618 0.194,1.234 0.302,1.849 0.005,0.03 0.01,0.06 0.015,0.089 0.359,2.033 0.801,4.048 1.316,6.044 0.005,0 0.012,-10e-4 0.018,-10e-4 h 5.12 c 1.591,0 2.881,1.29 2.881,2.881 0,1.591 -1.29,2.88 -2.881,2.88 h -3.419 c 0.625,1.841 1.312,3.665 2.074,5.467 0.743,1.757 1.546,3.481 2.406,5.171 1.876,-6.256 7.143,-11.058 13.66,-12.26 v -4.458 h -7.36 c -1.591,0 -2.88,-1.29 -2.88,-2.88 0,-1.591 1.289,-2.881 2.88,-2.881 h 7.36 V 4.16 h -21.799 c 0.005,0.042 0.009,0.083 0.014,0.125 m 14.376,36.806 c 0.863,1.206 1.762,2.388 2.693,3.547 2.099,1.891 4.875,3.045 7.916,3.045 5.876,0 10.762,-4.302 11.682,-9.921 H -73.604 V 24.446 c -4.979,1.4 -8.64,5.976 -8.64,11.396 0,1.884 0.444,3.665 1.231,5.249 m 65.652,39.553 c -3.245,0 -6.448,-0.185 -9.6,-0.534 v 0.004 c -0.192,-0.021 -0.382,-0.047 -0.573,-0.069 -0.379,-0.045 -0.759,-0.088 -1.137,-0.138 -0.475,-0.061 -0.948,-0.129 -1.421,-0.199 -0.178,-0.026 -0.357,-0.05 -0.535,-0.077 -21.815,-3.335 -40.938,-14.84 -54.156,-31.291 -1.193,-1.182 -2.217,-2.532 -3.035,-4.012 -10.039,-14.101 -15.947,-31.346 -15.947,-49.975 0,-0.02 0,-0.039 0,-0.059 0,-0.018 0,-0.036 0,-0.054 0,-0.527 0.01,-1.051 0.019,-1.575 0.003,-0.135 0.002,-0.27 0.006,-0.404 1.052,-46.806 39.321,-84.426 86.379,-84.426 33.924,0 63.277,19.554 77.417,48.002 H 55.577 C 51.88,-50.987 47.22,-57.228 41.663,-62.784 34.255,-70.192 25.63,-76.008 16.027,-80.069 c -9.938,-4.204 -20.499,-6.335 -31.388,-6.335 -3.232,0 -6.434,0.192 -9.6,0.566 V -5.76 h 19.2 3.841 67.203 5.515 0.246 c 0,47.719 -38.685,86.404 -86.405,86.404"
       style="fill:#2c3037;fill-opacity:1;fill-rule:nonzero;stroke:none"
       />
</svg>
